#!OML:ASF E:\Steps\Project 1\Capture day 1\Session 2\Subject.ASF
:FULLY-SPECIFIED
:DEGREES
471
root 12.2289 18.8729 7.4424 -152.571 2.88225 178.354
lowerback -28.559 -1.82871 -6.068
upperback -4.39437 0.77748 -0.939276
thorax 10.8424 0.65079 2.82041
lowerneck -5.06072 -1.65997 1.3379
upperneck -1.82995 -2.15108 2.08776
head 0.277764 -1.00985 0.37861
rclavicle 4.62174e-015 -2.46493e-014
rhumerus -39.2102 -21.9693 -74.2772
rradius 24.0438
rwrist 2.89431
rhand -8.67331 -51.1434
rfingers 7.12502
rthumb 17.2609 -80.3969
lclavicle 4.62174e-015 -2.46493e-014
lhumerus -31.3629 18.3042 71.7243
lradius 10.1465
lwrist -23.9071
lhand -21.8058 -12.8553
lfingers 7.12502
lthumb 4.59634 17.0749
rfemur -21.3419 4.66086 22.0704
rtibia 5.75392
rfoot -20.3735 -4.36182
rtoes -11.0054
lfemur -23.8791 -8.75582 -21.1896
ltibia 8.4907
lfoot -7.58175 -6.68548
ltoes -35.179
472
root 12.2251 18.8719 7.44227 -152.549 2.93541 178.321
lowerback -28.8814 -1.79157 -6.1497
upperback -4.15084 0.854416 -0.961376
thorax 11.2806 0.648506 2.87533
lowerneck -5.25468 -1.69368 1.13816
upperneck -2.31806 -2.15238 2.2258
head 0.164357 -1.00184 0.453589
rclavicle 1.2921e-015 1.15295e-014
rhumerus -38.6389 -21.493 -74.896
rradius 24.5475
rwrist 2.27306
rhand -8.45881 -51.1016
rfingers 7.12502
rthumb 17.4673 -80.3368
lclavicle 1.2921e-015 1.15295e-014
lhumerus -30.6689 17.9584 72.4147
lradius 10.3288
lwrist -23.3487
lhand -21.5757 -12.7344
lfingers 7.12502
lthumb 4.81844 17.1908
rfemur -21.3358 4.71013 21.9815
rtibia 5.65814
rfoot -20.2897 -4.41175
rtoes -11.3735
lfemur -23.88 -8.79711 -21.2419
ltibia 8.45892
lfoot -7.52146 -6.61008
ltoes -34.7839
473
root 12.2192 18.8717 7.44596 -152.533 2.9604 178.323
lowerback -28.6359 -1.81024 -6.22945
upperback -4.29814 0.841915 -0.920437
thorax 10.9845 0.659831 2.9595
lowerneck -5.11439 -1.65505 0.931895
upperneck -2.52091 -2.07708 2.35285
head 0.083374 -0.963047 0.528955
rclavicle -4.12478e-015 2.22639e-014
rhumerus -38.6555 -21.021 -75.1331
rradius 24.9379
rwrist 1.93984
rhand -8.26965 -51.3105
rfingers 7.12502
rthumb 17.6494 -80.5295
lclavicle -4.12478e-015 2.22639e-014
lhumerus -30.5903 17.1032 73.1246
lradius 10.6674
lwrist -22.3241
lhand -21.1363 -12.1929
lfingers 7.12502
lthumb 5.24276 17.7222
rfemur -21.387 4.94095 21.9022
rtibia 5.68189
rfoot -20.3136 -4.69101
rtoes -11.5406
lfemur -23.9554 -8.72326 -21.2749
ltibia 8.53953
lfoot -7.54643 -6.68669
ltoes -34.2453
474
root 12.2125 18.8758 7.45242 -152.578 2.89249 178.33
lowerback -28.7409 -1.75846 -6.14865
upperback -4.09125 0.874478 -0.993093
thorax 11.2762 0.649908 2.8431
lowerneck -5.30762 -1.33632 0.67377
upperneck -2.73267 -1.98888 2.74829
head 0.0584001 -1.06927 0.693044
rclavicle 8.79622e-015 1.78906e-014
rhumerus -38.1154 -20.9222 -75.6381
rradius 25.2503
rwrist 1.69358
rhand -8.29206 -51.3384
rfingers 7.12502
rthumb 17.6278 -80.5593
lclavicle 8.79622e-015 1.78906e-014
lhumerus -29.8763 16.3287 73.8503
lradius 10.8631
lwrist -21.4882
lhand -21.1038 -11.8331
lfingers 7.12502
lthumb 5.27417 18.0812
rfemur -21.4075 5.0202 21.8901
rtibia 5.79811
rfoot -20.392 -4.92711
rtoes -11.7855
lfemur -24.0142 -8.48833 -21.3334
ltibia 8.66651
lfoot -7.5399 -7.00526
ltoes -34.5754
475
root 12.206 18.8798 7.45606 -152.656 2.7798 178.357
lowerback -28.6049 -1.75191 -6.09883
upperback -4.08836 0.86036 -1.05195
thorax 11.2128 0.647317 2.73966
lowerneck -5.27865 -1.29584 0.644432
upperneck -2.672 -1.93718 3.11961
head 0.0768299 -1.04305 0.81302
rclavicle 6.31141e-015 -2.46493e-014
rhumerus -37.9682 -20.5692 -76.1042
rradius 25.6089
rwrist 1.24667
rhand -8.56923 -50.6097
rfingers 7.12502
rthumb 17.3611 -79.8543
lclavicle 6.31141e-015 -2.46493e-014
lhumerus -29.6098 15.039 74.5308
lradius 11.1763
lwrist -20.2461
lhand -21.2357 -12.1585
lfingers 7.12502
lthumb 5.14675 17.759
rfemur -21.33 4.94315 21.9459
rtibia 5.81676
rfoot -20.397 -4.95676
rtoes -12.2774
lfemur -23.9696 -8.29954 -21.3527
ltibia 8.67791
lfoot -7.42965 -7.28672
ltoes -34.7649
476
root 12.2002 18.8803 7.45593 -152.719 2.73345 178.389
lowerback -28.5014 -1.72165 -6.11111
upperback -4.14985 0.912862 -1.12233
thorax 11.0858 0.682996 2.68468
lowerneck -5.13096 -1.3153 0.861778
upperneck -2.48638 -1.9679 3.13687
head 0.107543 -1.05476 0.781964
rclavicle -2.5345e-015 -3.85642e-014
rhumerus -37.9888 -20.3697 -76.467
rradius 26.0157
rwrist 0.815684
rhand -8.80886 -50.2179
rfingers 7.12502
rthumb 17.1304 -79.4827
lclavicle -2.5345e-015 -3.85642e-014
lhumerus -29.4458 13.1384 75.411
lradius 11.6334
lwrist -18.4078
lhand -21.4449 -12.1865
lfingers 7.12502
lthumb 4.94474 17.7358
rfemur -21.2674 5.00349 21.9543
rtibia 5.82946
rfoot -20.3985 -4.96839
rtoes -12.0414
lfemur -23.8762 -8.30524 -21.3283
ltibia 8.60363
lfoot -7.38833 -7.30263
ltoes -34.1085
477
root 12.1949 18.8793 7.45652 -152.679 2.74009 178.359
lowerback -28.5877 -1.70823 -6.20088
upperback -4.13611 0.974873 -1.16359
thorax 11.1405 0.70845 2.71389
lowerneck -5.19707 -1.36001 1.09789
upperneck -2.27583 -2.03606 2.82464
head 0.17651 -1.0834 0.644623
rclavicle -7.20594e-015 1.43125e-014
rhumerus -37.9082 -19.8446 -76.9943
rradius 26.677
rwrist 0.0747637
rhand -8.92897 -50.3842
rfingers 7.12502
rthumb 17.0148 -79.659
lclavicle -7.20594e-015 1.43125e-014
lhumerus -29.1171 11.8239 76.226
lradius 12.0504
lwrist -17.0117
lhand -21.4852 -11.7225
lfingers 7.12502
lthumb 4.90591 18.2007
rfemur -21.3623 5.196 21.8406
rtibia 5.90764
rfoot -20.4443 -5.13
rtoes -11.3443
lfemur -23.9112 -8.41793 -21.3514
ltibia 8.55749
lfoot -7.44669 -7.19434
ltoes -33.8691
478
root 12.1885 18.8779 7.45921 -152.555 2.72885 178.35
lowerback -28.7045 -1.71701 -6.25381
upperback -4.13306 0.994773 -1.15961
thorax 11.2015 0.715602 2.7585
lowerneck -5.37539 -1.39268 1.19052
upperneck -2.02343 -2.08616 2.65066
head 0.280127 -1.1013 0.573082
rclavicle 1.54058e-015 -1.27222e-014
rhumerus -37.7826 -19.0406 -77.5775
rradius 27.4305
rwrist -0.694243
rhand -8.90967 -50.464
rfingers 7.12502
rthumb 17.0334 -79.7372
lclavicle 1.54058e-015 -1.27222e-014
lhumerus -28.7685 11.1253 76.8579
lradius 12.3936
lwrist -16.1555
lhand -21.1905 -11.5376
lfingers 7.12502
lthumb 5.19037 18.3788
rfemur -21.5638 5.17306 21.7942
rtibia 6.00878
rfoot -20.4584 -5.15488
rtoes -11.1607
lfemur -24.0726 -8.46983 -21.3618
ltibia 8.57062
lfoot -7.47037 -7.16088
ltoes -34.1354
479
root 12.1793 18.8769 7.4619 -152.482 2.69784 178.343
lowerback -28.7693 -1.74985 -6.29777
upperback -4.12429 0.970128 -1.1372
thorax 11.246 0.700835 2.80141
lowerneck -5.38733 -1.27864 1.02036
upperneck -1.90144 -1.92396 2.79353
head 0.3223 -1.01469 0.647385
rclavicle 2.70347e-014 -5.48646e-014
rhumerus -37.5353 -18.526 -77.9679
rradius 27.9237
rwrist -1.04684
rhand -8.86283 -50.261
rfingers 7.12502
rthumb 17.0785 -79.5304
lclavicle 2.70347e-014 -5.48646e-014
lhumerus -28.526 10.3056 77.5381
lradius 12.8181
lwrist -15.2229
lhand -21.0446 -11.6241
lfingers 7.12502
lthumb 5.33131 18.2889
rfemur -21.6771 4.95224 21.7874
rtibia 6.054
rfoot -20.4428 -5.03069
rtoes -11.5133
lfemur -24.1499 -8.53301 -21.3926
ltibia 8.56416
lfoot -7.44091 -7.13641
ltoes -34.3007
480
root 12.1705 18.8759 7.46455 -152.496 2.68953 178.318
lowerback -28.8719 -1.77398 -6.38054
upperback -4.01677 0.957054 -1.11174
thorax 11.4224 0.674802 2.87452
lowerneck -5.65491 -1.44518 1.18357
upperneck -1.97794 -2.16424 2.47993
head 0.338483 -1.13961 0.518391
rclavicle -3.08116e-015 3.1408e-014
rhumerus -37.136 -18.152 -78.3164
rradius 28.3448
rwrist -1.38021
rhand -8.86857 -50.472
rfingers 7.12502
rthumb 17.073 -79.7418
lclavicle -3.08116e-015 3.1408e-014
lhumerus -28.2058 9.5728 78.2049
lradius 13.2406
lwrist -14.4983
lhand -21.1722 -11.7817
lfingers 7.12502
lthumb 5.20809 18.1343
rfemur -21.6819 4.87799 21.7314
rtibia 6.08268
rfoot -20.477 -4.99757
rtoes -11.7092
lfemur -24.1098 -8.57138 -21.4638
ltibia 8.50387
lfoot -7.36957 -7.15063
ltoes -33.8401
481
root 12.1643 18.8753 7.46662 -152.585 2.68236 178.387
lowerback -28.8751 -1.74111 -6.37252
upperback -3.92995 0.978677 -1.08836
thorax 11.522 0.67073 2.90416
lowerneck -5.4696 -1.23481 0.871823
upperneck -2.19332 -1.85951 2.61652
head 0.244898 -0.989702 0.619206
rclavicle -1.98785e-015 -1.59028e-014
rhumerus -36.9406 -17.7855 -78.6794
rradius 28.9416
rwrist -1.79261
rhand -8.74674 -51.2983
rfingers 7.12502
rthumb 17.1902 -80.5579
lclavicle -1.98785e-015 -1.59028e-014
lhumerus -27.8535 8.98792 78.7243
lradius 13.5219
lwrist -14.0826
lhand -21.3422 -12.0185
lfingers 7.12502
lthumb 5.04392 17.9015
rfemur -21.5916 4.86072 21.7998
rtibia 6.09337
rfoot -20.4967 -4.88081
rtoes -11.3757
lfemur -23.957 -8.49139 -21.4351
ltibia 8.35443
lfoot -7.2604 -7.22665
ltoes -33.072
